# xmcd CD database file
#
# Track frame offsets:
#	150
#	76203
#	139566
#	157334
#	187591
#	217001
#
# Disc length: 3324 seconds
#
# Revision: 0
# Processed by: cddbd v1.5.2PL0 Copyright (c) Steve Scherf et al.
# Submitted via: CDex 1.51
#
DISCID=490cfa06
DTITLE=Masada - Live At Slim's - 5/30/98 Disc 1
DYEAR=1900
DGENRE=Jazz
TTITLE0=Piram
TTITLE1=Karaim
TTITLE2=Malkhut
TTITLE3=Khebar
TTITLE4=Kochot
TTITLE5=Acharei Mot
EXTD=
EXTT0=
EXTT1=
EXTT2=
EXTT3=
EXTT4=
EXTT5=
PLAYORDER=
